<?xml version="1.0" encoding="UTF-8"?>
<svg width="84px" height="90px" viewBox="0 0 84 90" version="1.1" xmlns="http://www.w3.org/2000/svg" xmlns:xlink="http://www.w3.org/1999/xlink">
    <!-- Generator: sketchtool 49.1 (51147) - http://www.bohemiancoding.com/sketch -->
    <title>972B4818-ACFA-4A87-B7AC-E792008FAAAD</title>
    <desc>Created with sketchtool.</desc>
    <defs></defs>
    <g id="Page-1" stroke="none" stroke-width="1" fill="none" fill-rule="evenodd">
        <g id="Betmatch_Landing_V2" transform="translate(-679.000000, -1345.000000)">
            <g id="2" transform="translate(545.000000, 1345.000000)">
                <g id="1117040" transform="translate(134.000000, 0.000000)">
                    <rect id="Rectangle-4" fill="#9F2DD3" x="0" y="23" width="75" height="57" rx="2.22222222"></rect>
                    <circle id="Oval-3" fill="#FFDC0B" cx="68.5" cy="74.5" r="13.5"></circle>
                    <path d="M19.8241044,30.5069732 L10.6743594,30.5069732 C9.83208033,30.5069732 9.14974499,31.1894989 9.14974499,32.0320129 L9.14974499,41.184311 C9.14974499,42.026825 9.83208033,42.7093506 10.6743594,42.7093506 L19.8241044,42.7093506 C20.6663833,42.7093506 21.3487186,42.026825 21.3487186,41.184311 L21.3487186,32.0320129 C21.3487186,31.1894989 20.6663833,30.5069732 19.8241044,30.5069732 Z M18.2988036,39.6585846 L12.19966,39.6585846 L12.19966,33.5577393 L18.2988036,33.5577393 L18.2988036,39.6585846 Z" id="Shape" fill="#FFFFFF" fill-rule="nonzero"></path>
                    <path d="M35.0729929,30.5069732 L25.9232479,30.5069732 C25.0816552,30.5069732 24.3986337,31.1894989 24.3986337,32.0320129 L24.3986337,41.184311 C24.3986337,42.026825 25.0816552,42.7093506 25.9232479,42.7093506 L35.0729929,42.7093506 C35.915272,42.7093506 36.5982937,42.026825 36.5982937,41.184311 L36.5982937,32.0320129 C36.5982937,31.1894989 35.915272,30.5069732 35.0729929,30.5069732 Z M33.5483787,39.6585846 L27.4485486,39.6585846 L27.4485486,33.5577393 L33.5483787,33.5577393 L33.5483787,39.6585846 Z" id="Shape" fill="#FFFFFF" fill-rule="nonzero"></path>
                    <path d="M50.322568,30.5069732 L41.172823,30.5069732 C40.3305439,30.5069732 39.6475222,31.1894989 39.6475222,32.0320129 L39.6475222,41.184311 C39.6475222,42.026825 40.3305439,42.7093506 41.172823,42.7093506 L50.3218816,42.7093506 C51.1641607,42.7093506 51.8471822,42.026825 51.8471822,41.184311 L51.8471822,32.0320129 C51.8471822,31.1894989 51.1641607,30.5069732 50.322568,30.5069732 Z M48.7972673,39.6585846 L42.6974372,39.6585846 L42.6974372,33.5577393 L48.7972673,33.5577393 L48.7972673,39.6585846 Z" id="Shape" fill="#FFFFFF" fill-rule="nonzero"></path>
                    <path d="M56.4217115,42.7093506 L65.5714565,42.7093506 C66.4137356,42.7093506 67.0960709,42.026825 67.0960709,41.184311 L67.0960709,32.0320129 C67.0960709,31.1894989 66.4137356,30.5069732 65.5714565,30.5069732 L56.4217115,30.5069732 C55.5794326,30.5069732 54.8970973,31.1894989 54.8970973,32.0320129 L54.8970973,41.184311 C54.8970973,42.026825 55.5794326,42.7093506 56.4217115,42.7093506 Z M57.9470123,33.5577393 L64.0461559,33.5577393 L64.0461559,39.6585846 L57.9470123,39.6585846 L57.9470123,33.5577393 Z" id="Shape" fill="#FFFFFF" fill-rule="nonzero"></path>
                    <path d="M19.8241044,45.7601166 L10.6743594,45.7601166 C9.83208033,45.7601166 9.14974499,46.4433289 9.14974499,47.2858429 L9.14974499,56.4374542 C9.14974499,57.2799683 9.83208033,57.9631806 10.6743594,57.9631806 L19.8241044,57.9631806 C20.6663833,57.9631806 21.3487186,57.2799683 21.3487186,56.4374542 L21.3487186,47.2858429 C21.3487186,46.4433289 20.6663833,45.7601166 19.8241044,45.7601166 Z M18.2988036,54.9124146 L12.19966,54.9124146 L12.19966,48.8108827 L18.2988036,48.8108827 L18.2988036,54.9124146 Z" id="Shape" fill="#FFFFFF" fill-rule="nonzero"></path>
                    <path d="M35.0729929,45.7601166 L25.9232479,45.7601166 C25.0816552,45.7601166 24.3986337,46.4433289 24.3986337,47.2858429 L24.3986337,56.4374542 C24.3986337,57.2799683 25.0816552,57.9631806 25.9232479,57.9631806 L35.0729929,57.9631806 C35.915272,57.9631806 36.5982937,57.2799683 36.5982937,56.4374542 L36.5982937,47.2858429 C36.5982937,46.4433289 35.915272,45.7601166 35.0729929,45.7601166 Z M33.5483787,54.9124146 L27.4485486,54.9124146 L27.4485486,48.8108827 L33.5483787,48.8108827 L33.5483787,54.9124146 Z" id="Shape" fill="#FFFFFF" fill-rule="nonzero"></path>
                    <path d="M50.322568,45.7601166 L41.172823,45.7601166 C40.3305439,45.7601166 39.6475222,46.4433289 39.6475222,47.2858429 L39.6475222,56.4374542 C39.6475222,57.2799683 40.3305439,57.9631806 41.172823,57.9631806 L50.3218816,57.9631806 C51.1641607,57.9631806 51.8471822,57.2799683 51.8471822,56.4374542 L51.8471822,47.2858429 C51.8471822,46.4433289 51.1641607,45.7601166 50.322568,45.7601166 Z M48.7972673,54.9124146 L42.6974372,54.9124146 L42.6974372,48.8108827 L48.7972673,48.8108827 L48.7972673,54.9124146 Z" id="Shape" fill="#FFFFFF" fill-rule="nonzero"></path>
                    <path d="M56.4217115,57.9631806 L65.5714565,57.9631806 C66.4137356,57.9631806 67.0960709,57.2799683 67.0960709,56.4374542 L67.0960709,47.2858429 C67.0960709,46.4433289 66.4137356,45.7601166 65.5714565,45.7601166 L56.4217115,45.7601166 C55.5794326,45.7601166 54.8970973,46.4433289 54.8970973,47.2858429 L54.8970973,56.4374542 C54.8970973,57.2799683 55.5794326,57.9631806 56.4217115,57.9631806 Z M57.9470123,48.8108827 L64.0461559,48.8108827 L64.0461559,54.9124146 L57.9470123,54.9124146 L57.9470123,48.8108827 Z" id="Shape" fill="#FFFFFF" fill-rule="nonzero"></path>
                    <path d="M19.8241044,61.0139464 L10.6743594,61.0139464 C9.83208033,61.0139464 9.14974499,61.6964722 9.14974499,62.5389863 L9.14974499,71.6912842 C9.14974499,72.5337983 9.83208033,73.2163238 10.6743594,73.2163238 L19.8241044,73.2163238 C20.6663833,73.2163238 21.3487186,72.5337983 21.3487186,71.6912842 L21.3487186,62.5389862 C21.3487186,61.6964722 20.6663833,61.0139464 19.8241044,61.0139464 Z M18.2988036,70.1655578 L12.19966,70.1655578 L12.19966,64.0640259 L18.2988036,64.0640259 L18.2988036,70.1655578 Z" id="Shape" fill="#FFFFFF" fill-rule="nonzero"></path>
                    <path d="M35.0729929,61.0139464 L25.9232479,61.0139464 C25.0816552,61.0139464 24.3986337,61.6964722 24.3986337,62.5389863 L24.3986337,71.6912842 C24.3986337,72.5337983 25.0816552,73.2163238 25.9232479,73.2163238 L35.0729929,73.2163238 C35.915272,73.2163238 36.5982937,72.5337983 36.5982937,71.6912842 L36.5982937,62.5389862 C36.5982937,61.6964722 35.915272,61.0139464 35.0729929,61.0139464 Z M33.5483787,70.1655578 L27.4485486,70.1655578 L27.4485486,64.0640259 L33.5483787,64.0640259 L33.5483787,70.1655578 Z" id="Shape" fill="#FFFFFF" fill-rule="nonzero"></path>
                    <path d="M50.322568,61.0139464 L41.172823,61.0139464 C40.3305439,61.0139464 39.6475222,61.6964722 39.6475222,62.5389863 L39.6475222,71.6912842 C39.6475222,72.5337983 40.3305439,73.2163238 41.172823,73.2163238 L50.3218816,73.2163238 C51.1641607,73.2163238 51.8471822,72.5337983 51.8471822,71.6912842 L51.8471822,62.5389862 C51.8471822,61.6964722 51.1641607,61.0139464 50.322568,61.0139464 Z M48.7972673,70.1655578 L42.6974372,70.1655578 L42.6974372,64.0640259 L48.7972673,64.0640259 L48.7972673,70.1655578 Z" id="Shape" fill="#FFFFFF" fill-rule="nonzero"></path>
                    <path d="M76.2458159,61.5522765 L76.2458159,7.6265717 C76.2458159,6.78405762 75.5627942,6.10153207 74.7205151,6.10153207 L67.0960709,6.10153207 L67.0960709,4.57580566 C67.0960709,2.0489502 65.0483787,5.68434189e-14 62.5215416,5.68434189e-14 C59.9947046,5.68434189e-14 57.9470123,2.0489502 57.9470123,4.57580566 L57.9470123,6.10153207 L54.8970973,6.10153207 L54.8970973,4.57580566 C54.8970973,2.0489502 52.8487186,5.68434189e-14 50.322568,5.68434189e-14 C47.795731,5.68434189e-14 45.7473523,2.0489502 45.7473523,4.57580566 L45.7473523,6.10153207 L42.6974372,6.10153207 L42.6974372,4.57580566 C42.6974372,2.0489502 40.649745,5.68434189e-14 38.1229079,5.68434189e-14 C35.5960709,5.68434189e-14 33.5483787,2.0489502 33.5483787,4.57580566 L33.5483787,6.10153207 L30.4984636,6.10153207 L30.4984636,4.57580566 C30.4984636,2.0489502 28.4500849,5.68434189e-14 25.9232479,5.68434189e-14 C23.3970973,5.68434189e-14 21.3487186,2.0489502 21.3487186,4.57580566 L21.3487186,6.10153207 L18.2988036,6.10153207 L18.2988036,4.57580566 C18.2988036,2.0489502 16.2511113,5.68434189e-14 13.7242743,5.68434189e-14 C11.1974372,5.68434189e-14 9.14974499,2.0489502 9.14974499,4.57580566 L9.14974499,6.10153207 L1.52461423,6.10153207 C0.683021749,6.10153207 0,6.78405762 0,7.6265717 L0,80.8428955 C0,81.6854096 0.683021749,82.3686219 1.52461423,82.3686219 L55.4352772,82.3686219 C59.6384349,89.660797 68.9556747,92.1643066 76.2458159,87.9606629 C83.5359571,83.7563324 86.0387682,74.436493 81.8362971,67.1443175 C80.4970253,64.8207091 78.5687762,62.891922 76.2458159,61.5522765 Z M60.9969272,4.57580566 C60.9969272,3.73329158 61.6792626,3.05076604 62.5215416,3.05076604 C63.3638205,3.05076604 64.0461559,3.73329158 64.0461559,4.57580566 L64.0461559,10.6773377 C64.0461559,11.5198516 63.3638205,12.203064 62.5215416,12.203064 C61.6792626,12.203064 60.9969272,11.5198516 60.9969272,10.6773377 L60.9969272,4.57580566 Z M48.7972673,4.57580566 C48.7972673,3.73329158 49.4802889,3.05076604 50.322568,3.05076604 C51.1641607,3.05076604 51.8471822,3.73329158 51.8471822,4.57580566 L51.8471822,10.6773377 C51.8471822,11.5198516 51.1641607,12.203064 50.322568,12.203064 C49.4802889,12.203064 48.7972673,11.5198516 48.7972673,10.6773377 L48.7972673,4.57580566 Z M36.5982937,4.57580566 C36.5982937,3.73329158 37.2806289,3.05076604 38.1229079,3.05076604 C38.965187,3.05076604 39.6475222,3.73329158 39.6475222,4.57580566 L39.6475222,10.6773377 C39.6475222,11.5198516 38.965187,12.203064 38.1229079,12.203064 C37.2806289,12.203064 36.5982937,11.5198516 36.5982937,10.6773377 L36.5982937,4.57580566 Z M24.3986337,4.57580566 C24.3986337,3.73329158 25.0816552,3.05076604 25.9232479,3.05076604 C26.765527,3.05076604 27.4485486,3.73329158 27.4485486,4.57580566 L27.4485486,10.6773377 C27.4485486,11.5198516 26.765527,12.203064 25.9232479,12.203064 C25.0816552,12.203064 24.3986337,11.5198516 24.3986337,10.6773377 L24.3986337,4.57580566 Z M12.19966,4.57580566 C12.19966,3.73329158 12.8819954,3.05076604 13.7242743,3.05076604 C14.5665533,3.05076604 15.2488887,3.73329158 15.2488887,4.57580566 L15.2488887,10.6773377 C15.2488887,11.5198516 14.5665533,12.203064 13.7242743,12.203064 C12.8819954,12.203064 12.19966,11.5198516 12.19966,10.6773377 L12.19966,4.57580566 Z M3.04991505,9.15229793 L9.14974499,9.15229793 L9.14974499,10.6773377 C9.14974499,13.2048798 11.1974372,15.2531434 13.7242743,15.2531434 C16.2511113,15.2531434 18.2988036,13.2048798 18.2988036,10.6773377 L18.2988036,9.15229793 L21.3487186,9.15229793 L21.3487186,10.6773377 C21.3487186,13.2048798 23.3970973,15.2531434 25.9232479,15.2531434 C28.4500849,15.2531434 30.4984636,13.2048798 30.4984636,10.6773377 L30.4984636,9.15229793 L33.5483787,9.15229793 L33.5483787,10.6773377 C33.5483787,13.2048798 35.5960709,15.2531434 38.1229079,15.2531434 C40.649745,15.2531434 42.6974372,13.2048798 42.6974372,10.6773377 L42.6974372,9.15229793 L45.7473523,9.15229793 L45.7473523,10.6773377 C45.7473523,13.2048798 47.795731,15.2531434 50.322568,15.2531434 C52.8487186,15.2531434 54.8970973,13.2048798 54.8970973,10.6773377 L54.8970973,9.15229793 L57.9470123,9.15229793 L57.9470123,10.6773377 C57.9470123,13.2048798 59.995391,15.2531434 62.5215416,15.2531434 C65.0483787,15.2531434 67.0967573,13.2048798 67.0967573,10.6773377 L67.0967573,9.15229793 L73.1959008,9.15229793 L73.1959008,21.3546753 L3.04991505,21.3546753 L3.04991505,9.15229793 Z M3.04991505,79.3178559 L3.04991505,24.4054413 L73.1959008,24.4054413 L73.1959008,60.1913452 C65.1616435,57.6644897 56.6008761,62.1311187 54.0747255,70.1676178 C53.1390887,73.1455995 53.1390887,76.3398742 54.0747255,79.3178559 L3.04991505,79.3178559 Z M68.6213716,86.9444276 C61.8838259,86.9444276 56.4217115,81.4814757 56.4217115,74.7420502 C56.4217115,68.0026245 61.8838259,62.5389863 68.6213716,62.5389863 C75.3589174,62.5389863 80.8203452,68.0026245 80.8203452,74.7420502 C80.8127942,81.4780426 75.3554851,86.9368744 68.6213716,86.9444276 Z" id="Shape" fill="#FFFFFF" fill-rule="nonzero"></path>
                    <path d="M73.7677171,70.9742279 L67.2107088,76.2243194 L63.6013337,72.612564 C63.0054916,72.0172423 62.0396508,72.0172423 61.4444954,72.6132508 C60.8486532,73.2092589 60.8493397,74.1753692 61.4451818,74.7706909 L66.0197111,79.3471832 C66.5688743,79.8971864 67.4441029,79.9452515 68.0509284,79.459793 L75.6753726,73.3582612 C76.333682,72.8322906 76.4407688,71.8716737 75.9142586,71.2131806 C75.3877485,70.5546875 74.4273994,70.4475708 73.76909,70.9742279 L73.7677171,70.9742279 Z" id="Shape" fill="#FFFFFF" fill-rule="nonzero"></path>
                </g>
            </g>
        </g>
    </g>
</svg>