<?xml version="1.0" encoding="UTF-8"?>
<svg width="90px" height="90px" viewBox="0 0 90 90" version="1.1" xmlns="http://www.w3.org/2000/svg" xmlns:xlink="http://www.w3.org/1999/xlink">
    <!-- Generator: sketchtool 49.1 (51147) - http://www.bohemiancoding.com/sketch -->
    <title>ECC5422E-3B83-430E-8A6C-22A556EA8716</title>
    <desc>Created with sketchtool.</desc>
    <defs></defs>
    <g id="Page-1" stroke="none" stroke-width="1" fill="none" fill-rule="evenodd">
        <g id="Betmatch_Landing_V2" transform="translate(-1055.000000, -1345.000000)">
            <g id="3" transform="translate(925.000000, 1345.000000)">
                <g id="ic" transform="translate(130.000000, 0.000000)">
                    <polygon id="Rectangle-5" fill="#9F2DD3" points="45 2 88 2 88 87 71.8210127 87 71.8210127 83.9696973 71.8210127 80.7871331 75.6503367 79.5581563 78.3910814 76.3150416 77.2100127 72.4125246 80.2441947 70.7670132 82.5730625 67.2690538 81.0865795 62.6944921 74.722782 62.6944921 77.2100127 58.6542392 74.722782 54.9087545 45 54.9087545"></polygon>
                    <circle id="Oval-4" fill="#FFDC0B" cx="66.5" cy="44.5" r="6.5"></circle>
                    <rect id="Rectangle-6" fill="#FFDC0B" x="2" y="54" width="23" height="33"></rect>
                    <path d="M89.484082,0.513859649 C89.1543164,0.184912281 88.7071289,0 88.2407812,0 L44.9996484,0.00228070175 C44.0289844,0.00228070175 43.2420117,0.787894737 43.2420117,1.75666667 L43.2420117,6.77368421 L26.5798828,11.2296491 C25.6420898,11.4805263 25.0855664,12.4424561 25.3369336,13.3782456 L33.9725391,45.5435088 L26.5020117,52.9994737 C25.5512109,51.6138596 23.9547656,50.7026316 22.1489648,50.7026316 L5.27449219,50.7026316 C2.36671875,50.7026316 0.00123046875,53.0636842 0.00123046875,55.965614 L0.00123046875,84.5614035 C0.00123046875,87.4635088 2.36671875,89.8245614 5.27449219,89.8245614 L22.1491406,89.8245614 C24.6193945,89.8245614 26.6974805,88.12 27.2670117,85.8280702 L29.3570508,87.647193 C30.9705469,89.0514035 33.0377344,89.8247368 35.1785742,89.8247368 L88.2411328,89.8247368 C89.2117969,89.8247368 89.9989453,89.0391228 89.9989453,88.0703509 L89.9989453,1.75438596 C89.9985937,1.28912281 89.8136719,0.842807018 89.484082,0.513859649 Z M23.9066016,84.5615789 C23.9066016,85.5287719 23.1180469,86.3159649 22.1487891,86.3159649 L5.27431641,86.3159649 C4.30505859,86.3159649 3.51650391,85.5289474 3.51650391,84.5615789 L3.51650391,55.9657895 C3.51650391,54.9984211 4.30505859,54.2114035 5.27431641,54.2114035 L11.9538281,54.2114035 L11.9538281,74.4210526 C11.9538281,75.3898246 12.7409766,76.1754386 13.7116406,76.1754386 C14.6823047,76.1754386 15.4694531,75.3898246 15.4694531,74.4210526 L15.4694531,54.2114035 L22.1489648,54.2114035 C23.1182227,54.2114035 23.9067773,54.9984211 23.9067773,55.9657895 L23.9067773,84.5615789 L23.9066016,84.5615789 Z M29.1875977,14.1647368 L43.2420117,10.4061404 L43.2420117,16.9070175 L42.0639258,17.2221053 C41.6133984,17.3426316 41.229668,17.6364912 40.996582,18.0394737 C40.7634961,18.4424561 40.7002148,18.9212281 40.8209766,19.3707018 C41.4965039,21.8866667 39.9951562,24.4819298 37.4742773,25.1561404 C37.0233984,25.2768421 36.6389648,25.5712281 36.4060547,25.9750877 C36.1731445,26.3787719 36.1103906,26.8584211 36.232207,27.3082456 L43.0839844,52.6307018 L39.5560547,52.6307018 L37.7379492,45.5317544 C37.6801172,45.3057895 37.5788672,45.0975439 37.4433398,44.9164912 L29.1875977,14.1647368 Z M43.2420117,24.9524561 L43.2420117,39.7561404 L40.0359375,27.9078947 C41.3752148,27.2177193 42.4712109,26.1850877 43.2420117,24.9524561 Z M68.4954492,86.3157895 L35.1782227,86.3157895 C33.8871094,86.3157895 32.640293,85.8494737 31.667168,85.0026316 L27.4222266,81.3077193 L27.4222266,57.0433333 L35.0964844,49.3840351 L36.4883203,54.8191228 C36.6873047,55.5957895 37.3881445,56.1389474 38.1912891,56.1389474 L72.7505859,56.1410526 C74.1076172,56.1410526 75.2115234,57.242807 75.2115234,58.597193 C75.2115234,59.9515789 74.1076172,61.0533333 72.7505859,61.0533333 L55.0423828,61.0533333 C54.0717187,61.0533333 53.2845703,61.8389474 53.2845703,62.8077193 C53.2845703,63.7764912 54.0717187,64.5621053 55.0423828,64.5621053 L78.2525391,64.5621053 C79.6095703,64.5621053 80.7134766,65.6638596 80.7134766,67.0182456 C80.7134766,68.3726316 79.6095703,69.474386 78.2525391,69.474386 L55.0423828,69.474386 C54.0717187,69.474386 53.2845703,70.26 53.2845703,71.2287719 C53.2845703,72.1975439 54.0717187,72.9831579 55.0423828,72.9831579 L74.4913477,72.9831579 C75.8483789,72.9831579 76.9522852,74.0849123 76.9522852,75.4392982 C76.9522852,76.7936842 75.8483789,77.8954386 74.4913477,77.8954386 L55.0423828,77.8954386 C54.0717187,77.8954386 53.2845703,78.6810526 53.2845703,79.6498246 C53.2845703,80.6185965 54.0717187,81.4042105 55.0423828,81.4042105 L68.4954492,81.4042105 C69.8524805,81.4042105 70.9563867,82.5059649 70.9563867,83.8603509 C70.9562109,85.2140351 69.8523047,86.3157895 68.4954492,86.3157895 Z M86.4833203,86.3157895 L73.9395703,86.3157895 C74.2804102,85.5661404 74.4718359,84.7350877 74.4718359,83.8596491 C74.4718359,82.9842105 74.2804102,82.1531579 73.9395703,81.4035088 L74.4913477,81.4035088 C77.7867188,81.4035088 80.4677344,78.7277193 80.4677344,75.4387719 C80.4677344,74.4794737 80.2383398,73.5729825 79.8333398,72.7691228 C82.3638867,72.0754386 84.22875,69.7605263 84.22875,67.0178947 C84.22875,65.6873684 83.7896484,64.4573684 83.049082,63.464386 L83.049082,41.2292982 C83.049082,40.2605263 82.2619336,39.4749123 81.2912695,39.4749123 C80.3206055,39.4749123 79.533457,40.2605263 79.533457,41.2292982 L79.533457,61.192807 C79.1203711,61.1024561 78.6919922,61.0533333 78.2521875,61.0533333 L78.1945313,61.0533333 C78.5353711,60.3036842 78.7267969,59.4726316 78.7267969,58.597193 C78.7267969,55.3080702 76.0457813,52.6324561 72.7504102,52.6324561 L69.9247266,52.6324561 C72.9251367,51.3482456 75.0324023,48.3717544 75.0324023,44.9122807 C75.0324023,40.2826316 71.2587305,36.5161404 66.6200391,36.5161404 C61.9815234,36.5161404 58.2076758,40.2826316 58.2076758,44.9122807 C58.2076758,48.3717544 60.3151172,51.3482456 63.3153516,52.6324561 L53.7066211,52.6324561 L53.7066211,19.2742105 C56.8467773,18.5912281 59.3245898,16.1184211 60.0087305,12.9842105 L73.2311719,12.9842105 C73.9153125,16.1184211 76.393125,18.5912281 79.5332813,19.2742105 L79.5332813,24.7285965 C79.5332813,25.6973684 80.3204297,26.4829825 81.2910938,26.4829825 C82.2617578,26.4829825 83.0489063,25.6973684 83.0489063,24.7285965 L83.0489063,17.7078947 C83.0489063,16.7391228 82.2617578,15.9535088 81.2910938,15.9535088 C78.6812695,15.9535088 76.5583594,13.834386 76.5583594,11.2298246 C76.5583594,10.2610526 75.7712109,9.4754386 74.8005469,9.4754386 L58.4395313,9.4754386 C57.4688672,9.4754386 56.6817188,10.2610526 56.6817188,11.2298246 C56.6817188,13.8345614 54.5586328,15.9535088 51.9489844,15.9535088 C50.9783203,15.9535088 50.1911719,16.7391228 50.1911719,17.7078947 L50.1911719,52.6322807 L46.7578125,52.6322807 L46.7578125,3.51070175 L86.4833203,3.50877193 L86.4833203,86.3157895 Z M66.6203906,49.7996491 C63.9202148,49.7996491 61.7236523,47.607193 61.7236523,44.9124561 C61.7236523,42.2177193 63.9203906,40.0250877 66.6203906,40.0250877 C69.3203906,40.0250877 71.5171289,42.2175439 71.5171289,44.9122807 C71.5171289,47.6070175 69.3205664,49.7996491 66.6203906,49.7996491 Z" id="Shape" fill="#FFFFFF" fill-rule="nonzero"></path>
                </g>
            </g>
        </g>
    </g>
</svg>