<?xml version="1.0" encoding="UTF-8"?>
<svg width="89px" height="89px" viewBox="0 0 89 89" version="1.1" xmlns="http://www.w3.org/2000/svg" xmlns:xlink="http://www.w3.org/1999/xlink">
    <!-- Generator: sketchtool 49.1 (51147) - http://www.bohemiancoding.com/sketch -->
    <title>3A18C5A1-C335-41FD-BF3E-BA1528B9D72C</title>
    <desc>Created with sketchtool.</desc>
    <defs></defs>
    <g id="Page-1" stroke="none" stroke-width="1" fill="none" fill-rule="evenodd">
        <g id="Betmatch_Landing_V2" transform="translate(-296.000000, -1345.000000)">
            <g id="1" transform="translate(165.000000, 1345.000000)">
                <g id="ic" transform="translate(131.000000, 0.000000)">
                    <path d="M73.425,30.5555556 C73.8165109,14.6296296 68.0685942,6.66666667 56.18125,6.66666667 C44.2939058,6.66666667 38.5459891,14.6296296 38.9375,30.5555556 L73.425,30.5555556 Z" id="Oval-2" fill="#FFDC0B"></path>
                    <rect id="Rectangle-4" fill="#9F2DD3" x="1.1125" y="32.2222222" width="86.775" height="55.5555556" rx="2.22222222"></rect>
                    <path d="M88.8244776,34.0013808 L88.8095685,33.9012075 C88.7926262,33.6453595 88.7533199,33.392219 88.6923275,33.1431395 L87.345075,24.3840697 C87.338298,24.3603802 87.329488,24.3380443 87.3200003,24.3157082 C87.2962812,24.2135045 87.2603633,24.1140081 87.2136026,24.0206032 C87.1810733,23.93329 87.1404118,23.8500379 87.0922956,23.7708469 C87.076031,23.748511 87.0726425,23.7221139 87.0563779,23.699778 C86.1231954,22.4916072 84.6336272,21.8472494 83.1128853,21.9948018 L79.8897797,22.3609757 C79.0968796,9.33980403 67.885135,-0.573965779 54.8476867,0.217267663 C41.8095609,1.00917808 31.8833989,12.2069255 32.676299,25.2280972 C32.702729,25.6673705 32.7420351,26.1052902 32.7928621,26.5425331 L5.06710674,28.9561674 C3.89469881,29.0610786 2.81242394,29.6316602 2.06425143,30.539988 C0.830173263,31.3610029 0.0880999376,32.7438 0.0867446394,34.22474 L0.0867446394,84.4568984 C0.0867446394,86.9043751 2.07373904,88.8888889 4.5242751,88.8888889 L84.4038894,88.8888889 C86.8551033,88.8888889 88.8420977,86.9043751 88.8420977,84.4568984 L88.8420977,34.22474 C88.8420977,34.150287 88.8359985,34.075157 88.8244776,34.0013808 Z M33.3865207,29.7927496 L29.4531935,29.7927496 L33.3092639,29.4556801 C33.3356939,29.566683 33.3580577,29.6844541 33.3865207,29.7927496 Z M3.04555016,34.22474 C3.04555016,33.4091401 3.70765568,32.7471844 4.5242751,32.7471844 L84.4038894,32.7471844 C85.0761604,32.753276 85.656943,33.2169157 85.8107792,33.8700725 L85.8832922,34.3370966 L85.8832922,54.9084904 L3.04555016,54.9084904 L3.04555016,34.22474 Z M40.3518443,27.1760613 C38.5640914,18.379765 44.2539976,9.80209002 53.0612892,8.0158924 C61.8679033,6.23037141 70.456978,11.9131741 72.2447308,20.7094704 C72.4575263,21.7538445 72.5659571,22.8171703 72.5700231,23.8832035 C72.5700231,24.0185728 72.5700231,24.1444661 72.5571469,24.3630875 C72.5076754,26.2237384 72.1335892,28.0606995 71.4504751,29.7927496 L63.6942846,29.7927496 L63.6942846,26.8376381 C63.697673,26.1269493 63.5248614,25.4270901 63.1914367,24.7989767 L63.171106,24.7543047 C62.9982943,24.440248 62.7888874,24.1478503 62.5469512,23.8832035 C63.2836028,23.0743719 63.6929291,22.0211989 63.6942846,20.9280918 L63.6942846,17.9736572 C63.6868299,16.1021768 62.5029011,14.4371344 60.7361569,13.8130821 L60.7361569,10.5865551 L57.7773514,10.5865551 L57.7773514,13.5409899 L56.2986263,13.5409899 L56.2986263,10.5865551 L53.3398209,10.5865551 L53.3398209,13.5409899 L48.9022904,13.5409899 L48.9022904,16.4961014 L51.8604181,16.4961014 L51.8604181,29.7927496 L41.1535545,29.7927496 C40.8160636,28.9433073 40.5476974,28.0688218 40.3518443,27.1760613 Z M59.2567541,16.4961014 C60.0740512,16.4961014 60.7361569,17.1573803 60.7361569,17.9729802 L60.7361569,20.9280918 C60.7361569,21.7443687 60.0740512,22.4056476 59.2567541,22.4056476 L54.8192237,22.4056476 L54.8192237,16.4961014 L59.2567541,16.4961014 Z M54.8192237,27.5767544 L60.7361569,27.053552 L60.7361569,29.7927496 L54.8192237,29.7927496 L54.8192237,27.5767544 Z M3.04555016,57.862925 L85.8832922,57.862925 L85.8832922,60.8180366 L3.04555016,60.8180366 L3.04555016,57.862925 Z M83.4042931,24.9404375 C83.7980324,24.9099795 84.1883833,25.0345192 84.4913119,25.2876597 L85.1967897,29.8678796 C84.9358782,29.8191466 84.6702227,29.7934264 84.4045672,29.7927496 L79.2134427,29.7927496 C79.5848182,28.3341456 79.814556,26.8437297 79.8999452,25.3411306 L83.4042931,24.9404375 Z M56.2986263,3.19945315 C67.7631503,3.22585021 77.0346613,12.5297812 77.0082313,23.9799924 L77.0082313,24.0070662 C76.9953552,25.9678905 76.6992035,27.9165313 76.1279088,29.7927496 L74.5970014,29.7927496 C75.1540646,28.0884503 75.4610594,26.3130821 75.5091755,24.5214695 C75.5288285,24.3028481 75.5288285,24.1018247 75.5288285,23.8832035 C75.4962993,13.2756661 66.8604639,4.70272904 56.2396671,4.73521767 C45.619548,4.7670295 37.0358948,13.3920835 37.068424,23.9996209 C37.0718126,25.268708 37.2019296,26.5337339 37.4553865,27.777101 C37.6004128,28.4580084 37.7806789,29.1307938 37.9955073,29.7927496 L36.4646001,29.7927496 C36.2450278,29.0739387 36.0634062,28.3436214 35.920413,27.6058587 C33.8798809,16.3465183 41.3649946,5.5677387 52.6384091,3.53043102 C53.8460572,3.31180957 55.0713253,3.20148356 56.2986263,3.19945315 Z M85.8832922,84.4568984 C85.8832922,85.2724983 85.2211866,85.9337773 84.4045672,85.9337773 L4.5242751,85.9337773 C3.70765568,85.9337773 3.04555016,85.2724983 3.04555016,84.4568984 L3.04555016,63.7731481 L85.8832922,63.7731481 L85.8832922,84.4568984 Z" id="Shape" fill="#FFFFFF" fill-rule="nonzero"></path>
                </g>
            </g>
        </g>
    </g>
</svg>