<?xml version="1.0" encoding="UTF-8"?>
<svg width="207px" height="49px" viewBox="0 0 207 49" version="1.1" xmlns="http://www.w3.org/2000/svg" xmlns:xlink="http://www.w3.org/1999/xlink">
    <!-- Generator: sketchtool 49.1 (51147) - http://www.bohemiancoding.com/sketch -->
    <title>D205BE1F-BA0D-45F9-BC74-00654F955541</title>
    <desc>Created with sketchtool.</desc>
    <defs>
        <polygon id="path-1" points="0.144698066 0.000890073443 18.7040131 0.000890073443 18.7040131 22.9577384 0.144698066 22.9577384"></polygon>
    </defs>
    <g id="Page-1" stroke="none" stroke-width="1" fill="none" fill-rule="evenodd">
        <g id="Betmatch_Landing" transform="translate(-169.000000, -25.000000)">
            <g id="logo-copy" transform="translate(169.000000, 25.000000)">
                <polygon id="Fill-1" fill="#FFDC0B" fill-rule="nonzero" points="28 28 20 32.4998243 28 37"></polygon>
                <polygon id="Fill-2" fill="#FFDC0B" fill-rule="nonzero" points="28 27.5000001 20 23 20 32"></polygon>
                <polygon id="Fill-3" fill="#FFDC0B" fill-rule="nonzero" points="18 23 10 27.4996486 18 32"></polygon>
                <polygon id="Fill-4" fill="#FFDC0B" fill-rule="nonzero" points="28 38.4998241 20 34 20 43"></polygon>
                <polygon id="Fill-5" fill="#FFDC0B" fill-rule="nonzero" points="18 34 10 38.4998241 18 43"></polygon>
                <polygon id="Fill-6" fill="#FFDC0B" fill-rule="nonzero" points="9 6 1 10.5001758 9 15"></polygon>
                <polygon id="Fill-7" fill="#FFDC0B" fill-rule="nonzero" points="18 21.4998242 10 17 10 26"></polygon>
                <polygon id="Fill-8" fill="#FFDC0B" fill-rule="nonzero" points="9 17 1 21.4999999 9 26"></polygon>
                <polygon id="Fill-9" fill="#FFDC0B" fill-rule="nonzero" points="9 28 1 32.4996485 9 37"></polygon>
                <polygon id="Fill-10" fill="#FFDC0B" fill-rule="nonzero" points="10 49 18 44.4998243 10 40"></polygon>
                <polygon id="Fill-11" fill="#FFDC0B" fill-rule="nonzero" points="1 44.4998243 9 49 9 40"></polygon>
                <polygon id="Fill-12" fill="#FFDC0B" fill-rule="nonzero" points="0 0 0 9 8 4.49999999"></polygon>
                <polygon id="Fill-13" fill="#FFDC0B" fill-rule="nonzero" points="0 20 8 15.4998242 0 11"></polygon>
                <polygon id="Fill-14" fill="#FFDC0B" fill-rule="nonzero" points="0 32 8 27.5000001 0 23"></polygon>
                <polygon id="Fill-15" fill="#FFDC0B" fill-rule="nonzero" points="0 43 8 38.4994727 0 34"></polygon>
                <g id="Group-33" transform="translate(39.000000, 20.000000)">
                    <path d="M3.96124253,20.9548878 L4.32803103,20.9548878 C4.35187227,20.9797357 4.37057847,20.9923451 4.3830493,20.9923451 L4.43806757,20.9923451 L4.78651666,20.9923451 L5.09865367,20.9923451 L5.59345136,20.9923451 C5.7522708,20.9923451 5.91732561,20.9797357 6.08861584,20.9548878 C7.23776424,20.9055629 8.2893469,20.6526337 9.242997,20.1946167 C10.1966471,19.7377124 10.6734722,18.7797708 10.6734722,17.3204212 L10.6734722,17.209162 C10.6734722,15.7509251 10.2087511,14.7985464 9.27967584,14.3535098 C8.35023377,13.908473 7.32322596,13.6618486 6.19901919,13.611782 L5.74053356,13.611782 L5.28204791,13.611782 L3.59445401,13.611782 L3.59445401,20.9548878 L3.96124253,20.9548878 Z M3.59445401,10.7935868 L3.94290307,10.7935868 L4.29135216,10.7935868 C4.38891791,10.8184347 4.49895447,10.8303024 4.62146183,10.8303024 L4.98825033,10.8303024 L5.50175424,10.8303024 C5.67267769,10.8303024 5.84396791,10.8184347 6.01562493,10.7935868 C6.94433344,10.744262 7.80005101,10.5280483 8.58314447,10.144575 C9.36513757,9.76110167 9.76860493,9.01343998 9.79317976,7.90084816 L9.79317976,7.52998424 C9.79317976,6.09622428 9.3167215,5.19317059 8.36270459,4.82230667 C7.40905446,4.45144271 6.35747181,4.25377225 5.20832343,4.22892435 L5.06160803,4.22892435 L4.91525941,4.22892435 L3.59445401,4.22892435 L3.59445401,10.7935868 Z M-7.33577013e-05,1.11366731 L6.16197356,1.11366731 L6.96890827,1.11366731 C7.23776424,1.11366731 7.50662021,1.12664755 7.77584299,1.1507537 C8.41148747,1.20044947 9.02842573,1.29909927 9.62812493,1.44744486 C10.2270906,1.59579042 10.7706711,1.86837543 11.2603338,2.2633455 C11.9447611,2.78255501 12.4707358,3.42563308 12.8375244,4.19183795 C13.2043129,4.95841372 13.4119152,5.76244672 13.4610649,6.6028244 L13.4610649,6.73225592 L13.4610649,6.86205829 C13.4610649,7.9253252 13.1980774,8.92665781 12.6724695,9.86642702 C12.146128,10.8061962 11.3457955,11.4737513 10.2700048,11.8687214 C11.5904434,12.1409355 12.6046137,12.8207291 13.3143494,13.908473 C14.0233516,14.9969587 14.414715,16.1466369 14.4880727,17.3578783 L14.4880727,17.5618537 L14.4880727,17.765458 L14.4880727,17.9879764 L14.4880727,18.2108655 C14.414715,19.1254161 14.170067,20.0091849 13.7544956,20.8621716 C13.3381907,21.7155298 12.7274879,22.4012571 11.9205531,22.9208375 C11.4070492,23.2668534 10.838527,23.5205244 10.2149865,23.6811087 C9.59181289,23.8420634 8.94993299,23.9466471 8.2893469,23.995972 C7.94676643,24.0211907 7.60455274,24.0393631 7.26233906,24.0519725 C6.91939181,24.064582 6.58964894,24.0701448 6.2720101,24.0701448 L-7.33577013e-05,24.0701448 L-7.33577013e-05,1.11366731 Z" id="Fill-16" fill="#FFFFFF" fill-rule="nonzero"></path>
                    <polygon id="Fill-18" fill="#FFFFFF" fill-rule="nonzero" points="20.5401563 1.11348188 33.1943599 1.11348188 33.1943599 4.3399981 24.2080413 4.3399981 24.2080413 10.0142163 33.1943599 10.0142163 33.1943599 13.3152761 24.2080413 13.3152761 24.2080413 20.6954684 33.1943599 20.6954684 33.1943599 24.0703304 20.5401563 24.0703304"></polygon>
                    <polygon id="Fill-20" fill="#FFFFFF" fill-rule="nonzero" points="48.2323217 24.0702931 44.5277579 24.0702931 44.5277579 4.33996101 38.5124264 4.33996101 38.5124264 1.11344479 54.2109744 1.11344479 54.2109744 4.33996101 48.2323217 4.33996101"></polygon>
                    <path d="M75.94279,11.9244993 C75.9057444,11.6648946 75.8628301,11.399356 75.8140473,11.1271419 C75.8140473,10.9787963 75.8015764,10.8245169 75.7777351,10.663562 C75.7527936,10.5029779 75.7410563,10.3483276 75.7410563,10.199982 C75.7164816,10.1013322 75.698142,9.99600687 75.686038,9.88474772 C75.6735673,9.77348853 75.6676986,9.66853403 75.6676986,9.56951336 C75.5448246,10.1135707 75.3984759,10.6576281 75.2275524,11.2013147 C75.0562621,11.7457429 74.848293,12.2645816 74.6040119,12.7589432 L68.698717,24.9232803 L62.7567431,12.5364248 C62.5608781,12.0420632 62.3716153,11.5536354 62.188221,11.0715123 C62.0048267,10.5893892 61.8148303,10.0887229 61.6196989,9.56951336 C61.6196989,9.89142326 61.6009927,10.2129623 61.5646806,10.5337596 C61.5280017,10.8552986 61.4968247,11.1768376 61.4729836,11.4980058 C61.4480419,11.696418 61.4175984,11.9003932 61.3812863,12.1099313 C61.3446076,12.3202111 61.3134304,12.5364248 61.2895891,12.7589432 L58.7954273,24.0702931 L55.3842941,24.0702931 L60.7394064,0.149569426 L67.451636,14.6503493 C67.5737767,14.8980864 67.6900487,15.1510155 67.8000851,15.4106203 C67.9101217,15.6702251 68.013923,15.923896 68.1114884,16.1708914 C68.1602714,16.2947599 68.2090543,16.4182576 68.2585707,16.5417552 C68.3073536,16.6656239 68.3557697,16.80136 68.4052861,16.9497055 C68.454069,17.0739451 68.502852,17.197072 68.5520016,17.3205696 C68.6004177,17.4448091 68.6492006,17.5679358 68.698717,17.6914335 C68.7720747,17.5186109 68.8450657,17.3520929 68.9187901,17.1907672 C68.9921479,17.0305539 69.0655056,16.8632945 69.1388633,16.6901008 C69.1630711,16.5914511 69.1938816,16.4987351 69.2305603,16.411953 C69.2672393,16.3255417 69.3094199,16.2450642 69.3589363,16.1708914 C69.4561351,15.923896 69.56067,15.6702251 69.6703399,15.4106203 C69.780743,15.1510155 69.8966484,14.8980864 70.0191556,14.6503493 L76.5113123,0.149569426 L82.0131399,24.0702931 L78.564961,24.0702931 L76.071166,12.7218567 C76.0220163,12.4500136 75.9794689,12.1841041 75.94279,11.9244993" id="Fill-22" fill="#FFFFFF" fill-rule="nonzero"></path>
                    <path d="M94.4652429,8.53094599 C94.3306314,8.97598272 94.1655766,9.40878093 93.9697116,9.82896977 L91.6593107,15.0585221 L97.968073,15.0585221 L95.6573054,9.82896977 C95.51059,9.48295371 95.382214,9.13730853 95.2718107,8.79055076 C95.1617741,8.44490556 95.0576061,8.08628015 94.9604073,7.71541621 C94.9354657,7.64124341 94.9108907,7.5611368 94.8866827,7.47398378 C94.862108,7.38794333 94.8378999,7.29522738 94.8133251,7.19583583 C94.7157593,7.64124341 94.5991206,8.08628015 94.4652429,8.53094599 Z M99.2881449,18.136322 L90.3018264,18.136322 L87.6979949,24.0701448 L83.8096699,24.0701448 L94.7403341,0.223593865 L105.743989,24.0701448 L101.819352,24.0701448 L99.2881449,18.136322 Z" id="Fill-24" fill="#FFFFFF" fill-rule="nonzero"></path>
                    <polygon id="Fill-26" fill="#FFFFFF" fill-rule="nonzero" points="118.1779 24.0702931 114.473336 24.0702931 114.473336 4.33996101 108.458004 4.33996101 108.458004 1.11344479 124.156553 1.11344479 124.156553 4.33996101 118.1779 4.33996101"></polygon>
                    <path d="M140.588164,4.72959067 C139.438281,4.27231544 138.22788,4.04349238 136.956957,4.04349238 C136.663527,4.04349238 136.363494,4.05610176 136.058326,4.08057878 C135.752057,4.10542666 135.42855,4.14251306 135.086336,4.19183795 C133.03232,4.56307276 131.448895,5.54549134 130.336425,7.14020625 C129.223589,8.73529202 128.630859,10.4353323 128.5575,12.2395853 L128.5575,12.4439314 L128.5575,12.6479066 L128.5575,12.870054 L128.5575,13.0929432 C128.655066,14.7744403 129.18691,16.356546 130.153031,17.8400015 C131.118785,19.3234573 132.506346,20.3373995 134.31608,20.8810858 C134.511579,20.9307816 134.707076,20.9738018 134.902942,21.0105172 C135.09844,21.0476038 135.30641,21.090995 135.526482,21.1403196 C135.721614,21.1651675 135.917479,21.1903864 136.113344,21.2144926 C136.308842,21.2397113 136.503973,21.2519498 136.700206,21.2519498 C138.020645,21.2519498 139.286065,20.9678681 140.496467,20.3985919 C141.706869,19.8304284 142.837678,19.1254161 143.88926,18.2850383 L143.88926,22.5125163 C143.155683,23.0076197 142.379192,23.4088945 141.560153,23.7178241 C140.740748,24.0274956 139.915473,24.2555768 139.08433,24.4042932 C138.692968,24.4536181 138.301605,24.4970092 137.910608,24.5337247 C137.519244,24.5708112 137.140352,24.5897252 136.773563,24.5897252 C133.863463,24.5897252 131.210482,23.6377174 128.814253,21.734073 C126.41729,19.8304284 125.060539,17.1850559 124.742901,13.7972139 L124.742901,13.5005227 L124.742901,13.2042025 C124.717959,13.1296589 124.706222,13.0436183 124.706222,12.9442268 L124.706222,12.6479066 C124.706222,9.6064514 125.69655,6.93623108 127.677208,4.6368747 C129.657867,2.33751829 132.188707,1.02725601 135.269731,0.70571698 C135.343088,0.70571698 135.416446,0.699783158 135.489803,0.687173785 C135.563162,0.674935274 135.624048,0.668630586 135.673198,0.668630586 C135.893272,0.644153568 136.107108,0.631544193 136.315078,0.631544193 L136.8836,0.631544193 C138.179464,0.631544193 139.414441,0.835519357 140.588164,1.24346968 C141.761887,1.65142002 142.922773,2.22625911 144.072654,2.96798698 L143.88926,6.71408358 C142.837678,5.84885802 141.737313,5.18723676 140.588164,4.72959067" id="Fill-28" fill="#FFFFFF" fill-rule="nonzero"></path>
                    <g id="Group-32" transform="translate(148.916134, 1.112591)">
                        <g id="Fill-30-Clipped">
                            <g>
                                <mask id="mask-2" fill="white">
                                    <use xlink:href="#path-1"></use>
                                </mask>
                                <g id="path-1"></g>
                                <polygon id="Fill-30" fill="#FFFFFF" fill-rule="nonzero" mask="url(#mask-2)" points="0.144698066 0.000890073443 3.84926199 0.000890073443 3.84926199 8.45695863 15.0363114 8.45695863 15.0363114 0.000890073443 18.7041964 0.000890073443 18.7041964 22.9577384 15.0363114 22.9577384 15.0363114 11.794734 3.84926199 11.794734 3.84926199 22.9577384 0.144698066 22.9577384"></polygon>
                            </g>
                        </g>
                    </g>
                </g>
            </g>
        </g>
    </g>
</svg>